<?xml version="1.0" encoding="UTF-8" standalone="no"?>
<svg width="1200" height="800" xmlns="http://www.w3.org/2000/svg">
  <!-- 배경 -->
  <rect width="1200" height="800" fill="#f8f9fa" />
  
  <!-- 헤더 -->
  <rect x="0" y="0" width="1200" height="60" fill="white" stroke="#e9ecef" stroke-width="1" />
  <rect x="20" y="15" width="120" height="30" fill="#f8f9fa" rx="5" ry="5" />
  <text x="80" y="35" font-family="Arial" font-size="16" text-anchor="middle" fill="#212529">케빈랩 로고</text>
  
  <!-- 네비게이션 메뉴 -->
  <text x="200" y="35" font-family="Arial" font-size="14" fill="#6c757d">대시보드</text>
  <text x="300" y="35" font-family="Arial" font-size="14" fill="#6c757d">영업현황</text>
  <text x="380" y="35" font-family="Arial" font-size="14" fill="#6c757d">계약관리</text>
  <text x="460" y="35" font-family="Arial" font-size="14" font-weight="bold" fill="#0d6efd">수주잔</text>
  <text x="530" y="35" font-family="Arial" font-size="14" fill="#6c757d">서비스현황</text>
  <text x="630" y="35" font-family="Arial" font-size="14" fill="#6c757d">설정</text>
  
  <!-- 사용자 메뉴 -->
  <circle cx="1150" cy="30" r="15" fill="#f8f9fa" stroke="#ced4da" stroke-width="1" />
  <text x="1150" y="35" font-family="Arial" font-size="14" text-anchor="middle" fill="#212529">A</text>
  
  <!-- 다크모드 토글 -->
  <circle cx="1100" cy="30" r="15" fill="white" stroke="#ced4da" stroke-width="1" />
  <circle cx="1100" cy="30" r="7" fill="#212529" />
  
  <!-- 페이지 제목 및 주차 정보 -->
  <text x="40" y="100" font-family="Arial" font-size="24" font-weight="bold" fill="#212529">수주잔 관리</text>
  <rect x="1000" y="85" width="160" height="30" rx="15" ry="15" fill="#e9ecef" />
  <text x="1080" y="105" font-family="Arial" font-size="14" text-anchor="middle" fill="#212529">2025년 5월 3주차</text>
  
  <!-- 요약 카드 영역 -->
  <rect x="40" y="130" width="360" height="120" rx="10" ry="10" fill="white" stroke="#e9ecef" stroke-width="1" />
  <text x="60" y="160" font-family="Arial" font-size="16" font-weight="bold" fill="#212529">수주잔 총액</text>
  <text x="60" y="200" font-family="Arial" font-size="24" font-weight="bold" fill="#0d6efd">₩280,000,000</text>
  <text x="60" y="230" font-family="Arial" font-size="14" fill="#6c757d">총 8건</text>
  
  <rect x="420" y="130" width="360" height="120" rx="10" ry="10" fill="white" stroke="#e9ecef" stroke-width="1" />
  <text x="440" y="160" font-family="Arial" font-size="16" font-weight="bold" fill="#212529">이번 달 예상 매출</text>
  <text x="440" y="200" font-family="Arial" font-size="24" font-weight="bold" fill="#0d6efd">₩45,000,000</text>
  <text x="440" y="230" font-family="Arial" font-size="14" fill="#6c757d">2025년 5월</text>
  
  <rect x="800" y="130" width="360" height="120" rx="10" ry="10" fill="white" stroke="#e9ecef" stroke-width="1" />
  <text x="820" y="160" font-family="Arial" font-size="16" font-weight="bold" fill="#212529">다음 달 예상 매출</text>
  <text x="820" y="200" font-family="Arial" font-size="24" font-weight="bold" fill="#0d6efd">₩65,000,000</text>
  <text x="820" y="230" font-family="Arial" font-size="14" fill="#6c757d">2025년 6월</text>
  
  <!-- 필터 영역 -->
  <rect x="40" y="270" width="1120" height="50" fill="white" stroke="#e9ecef" stroke-width="1" />
  <text x="70" y="300" font-family="Arial" font-size="14" fill="#212529">필터:</text>
  
  <rect x="120" y="280" width="120" height="30" rx="5" ry="5" fill="#f8f9fa" stroke="#ced4da" stroke-width="1" />
  <text x="180" y="300" font-family="Arial" font-size="12" text-anchor="middle" fill="#212529">모든 사업장</text>
  
  <rect x="260" y="280" width="120" height="30" rx="5" ry="5" fill="#f8f9fa" stroke="#ced4da" stroke-width="1" />
  <text x="320" y="300" font-family="Arial" font-size="12" text-anchor="middle" fill="#212529">모든 담당자</text>
  
  <rect x="400" y="280" width="200" height="30" rx="5" ry="5" fill="white" stroke="#ced4da" stroke-width="1" />
  <text x="420" y="300" font-family="Arial" font-size="12" fill="#6c757d">검색...</text>
  
  <!-- 테이블 헤더 -->
  <rect x="40" y="330" width="1120" height="50" fill="#f8f9fa" stroke="#e9ecef" stroke-width="1" />
  <text x="70" y="360" font-family="Arial" font-size="14" font-weight="bold" fill="#212529">사업장/프로젝트</text>
  <text x="300" y="360" font-family="Arial" font-size="14" font-weight="bold" fill="#212529">고객사</text>
  <text x="500" y="360" font-family="Arial" font-size="14" font-weight="bold" fill="#212529">계약금액</text>
  <text x="650" y="360" font-family="Arial" font-size="14" font-weight="bold" fill="#212529">잔액</text>
  <text x="800" y="360" font-family="Arial" font-size="14" font-weight="bold" fill="#212529">다음 매출</text>
  <text x="950" y="360" font-family="Arial" font-size="14" font-weight="bold" fill="#212529">담당자</text>
  <text x="1100" y="360" font-family="Arial" font-size="14" font-weight="bold" fill="#212529">작업</text>
  
  <!-- 테이블 행 1 -->
  <rect x="40" y="380" width="1120" height="60" fill="white" stroke="#e9ecef" stroke-width="1" />
  <text x="70" y="415" font-family="Arial" font-size="14" fill="#212529">E 병원 HEMS</text>
  <text x="300" y="415" font-family="Arial" font-size="14" fill="#212529">미래의료센터</text>
  <text x="500" y="415" font-family="Arial" font-size="14" fill="#212529">₩38,000,000</text>
  <text x="650" y="415" font-family="Arial" font-size="14" fill="#212529">₩28,000,000</text>
  <text x="800" y="415" font-family="Arial" font-size="14" fill="#212529">₩10,000,000 (6월)</text>
  <text x="950" y="415" font-family="Arial" font-size="14" fill="#212529">박지민</text>
  
  <rect x="1060" y="395" width="80" height="30" rx="5" ry="5" fill="#0d6efd" />
  <text x="1100" y="415" font-family="Arial" font-size="12" text-anchor="middle" fill="white">관리</text>
  
  <!-- 테이블 행 2 -->
  <rect x="40" y="440" width="1120" height="60" fill="white" stroke="#e9ecef" stroke-width="1" />
  <text x="70" y="475" font-family="Arial" font-size="14" fill="#212529">H 호텔 BEMS</text>
  <text x="300" y="475" font-family="Arial" font-size="14" fill="#212529">그랜드호텔</text>
  <text x="500" y="475" font-family="Arial" font-size="14" fill="#212529">₩85,000,000</text>
  <text x="650" y="475" font-family="Arial" font-size="14" fill="#212529">₩65,000,000</text>
  <text x="800" y="475" font-family="Arial" font-size="14" fill="#212529">₩20,000,000 (5월)</text>
  <text x="950" y="475" font-family="Arial" font-size="14" fill="#212529">김영수</text>
  
  <rect x="1060" y="455" width="80" height="30" rx="5" ry="5" fill="#0d6efd" />
  <text x="1100" y="475" font-family="Arial" font-size="12" text-anchor="middle" fill="white">관리</text>
  
  <!-- 테이블 행 3 -->
  <rect x="40" y="500" width="1120" height="60" fill="white" stroke="#e9ecef" stroke-width="1" />
  <text x="70" y="535" font-family="Arial" font-size="14" fill="#212529">I 공장 FEMS</text>
  <text x="300" y="535" font-family="Arial" font-size="14" fill="#212529">테크인더스트리</text>
  <text x="500" y="535" font-family="Arial" font-size="14" fill="#212529">₩72,000,000</text>
  <text x="650" y="535" font-family="Arial" font-size="14" fill="#212529">₩47,000,000</text>
  <text x="800" y="535" font-family="Arial" font-size="14" fill="#212529">₩15,000,000 (5월)</text>
  <text x="950" y="535" font-family="Arial" font-size="14" fill="#212529">이수진</text>
  
  <rect x="1060" y="515" width="80" height="30" rx="5" ry="5" fill="#0d6efd" />
  <text x="1100" y="535" font-family="Arial" font-size="12" text-anchor="middle" fill="white">관리</text>
  
  <!-- 수주잔 관리 모달 -->
  <rect x="250" y="150" width="700" height="500" rx="10" ry="10" fill="white" stroke="#212529" stroke-width="1" />
  <rect x="250" y="150" width="700" height="50" rx="10" ry="0" fill="#f8f9fa" />
  <text x="280" y="180" font-family="Arial" font-size="18" font-weight="bold" fill="#212529">수주잔 관리</text>
  <text x="930" y="180" font-family="Arial" font-size="18" fill="#212529">×</text>
  
  <!-- 모달 내용 -->
  <text x="280" y="230" font-family="Arial" font-size="14" font-weight="bold" fill="#212529">사업장/프로젝트</text>
  <rect x="280" y="240" width="640" height="40" rx="5" ry="5" fill="#f8f9fa" />
  <text x="300" y="265" font-family="Arial" font-size="14" fill="#212529">H 호텔 BEMS</text>
  
  <text x="280" y="300" font-family="Arial" font-size="14" font-weight="bold" fill="#212529">계약금액</text>
  <rect x="280" y="310" width="300" height="40" rx="5" ry="5" fill="#f8f9fa" />
  <text x="300" y="335" font-family="Arial" font-size="14" fill="#212529">₩85,000,000</text>
  
  <text x="620" y="300" font-family="Arial" font-size="14" font-weight="bold" fill="#212529">잔액</text>
  <rect x="620" y="310" width="300" height="40" rx="5" ry="5" fill="#f8f9fa" />
  <text x="640" y="335" font-family="Arial" font-size="14" fill="#212529">₩65,000,000</text>
  
  <text x="280" y="370" font-family="Arial" font-size="16" font-weight="bold" fill="#212529">월별 매출 스케줄</text>
  
  <!-- 월별 매출 입력 테이블 -->
  <rect x="280" y="400" width="640" height="40" fill="#f8f9fa" stroke="#e9ecef" stroke-width="1" />
  <text x="330" y="425" font-family="Arial" font-size="14" font-weight="bold" fill="#212529">월</text>
  <text x="500" y="425" font-family="Arial" font-size="14" font-weight="bold" fill="#212529">예상 금액 (원)</text>
  <text x="700" y="425" font-family="Arial" font-size="14" font-weight="bold" fill="#212529">실적 반영</text>
  <text x="850" y="425" font-family="Arial" font-size="14" font-weight="bold" fill="#212529">상태</text>
  
  <rect x="280" y="440" width="640" height="40" fill="white" stroke="#e9ecef" stroke-width="1" />
  <text x="330" y="465" font-family="Arial" font-size="14" fill="#212529">2025-05</text>
  <rect x="450" y="445" width="150" height="30" rx="5" ry="5" fill="white" stroke="#ced4da" stroke-width="1" />
  <text x="470" y="465" font-family="Arial" font-size="14" fill="#212529">20,000,000</text>
  <rect x="680" y="445" width="80" height="30" rx="5" ry="5" fill="#28a745" />
  <text x="720" y="465" font-family="Arial" font-size="12" text-anchor="middle" fill="white">입금확인</text>
  <rect x="800" y="450" width="80" height="25" rx="12" ry="12" fill="#f8f9fa" />
  <text x="840" y="465" font-family="Arial" font-size="12" text-anchor="middle" fill="#6c757d">예정</text>
  
  <rect x="280" y="480" width="640" height="40" fill="white" stroke="#e9ecef" stroke-width="1" />
  <text x="330" y="505" font-family="Arial" font-size="14" fill="#212529">2025-06</text>
  <rect x="450" y="485" width="150" height="30" rx="5" ry="5" fill="white" stroke="#ced4da" stroke-width="1" />
  <text x="470" y="505" font-family="Arial" font-size="14" fill="#212529">25,000,000</text>
  <rect x="680" y="485" width="80" height="30" rx="5" ry="5" fill="#6c757d" />
  <text x="720" y="505" font-family="Arial" font-size="12" text-anchor="middle" fill="white">예정</text>
  <rect x="800" y="490" width="80" height="25" rx="12" ry="12" fill="#f8f9fa" />
  <text x="840" y="505" font-family="Arial" font-size="12" text-anchor="middle" fill="#6c757d">예정</text>
  
  <rect x="280" y="520" width="640" height="40" fill="white" stroke="#e9ecef" stroke-width="1" />
  <text x="330" y="545" font-family="Arial" font-size="14" fill="#212529">2025-07</text>
  <rect x="450" y="525" width="150" height="30" rx="5" ry="5" fill="white" stroke="#ced4da" stroke-width="1" />
  <text x="470" y="545" font-family="Arial" font-size="14" fill="#212529">20,000,000</text>
  <rect x="680" y="525" width="80" height="30" rx="5" ry="5" fill="#6c757d" />
  <text x="720" y="545" font-family="Arial" font-size="12" text-anchor="middle" fill="white">예정</text>
  <rect x="800" y="530" width="80" height="25" rx="12" ry="12" fill="#f8f9fa" />
  <text x="840" y="545" font-family="Arial" font-size="12" text-anchor="middle" fill="#6c757d">예정</text>
  
  <!-- 모달 버튼 -->
  <rect x="450" y="600" width="100" height="40" rx="5" ry="5" fill="#6c757d" />
  <text x="500" y="625" font-family="Arial" font-size="14" font-weight="bold" text-anchor="middle" fill="white">취소</text>
  
  <rect x="570" y="600" width="100" height="40" rx="5" ry="5" fill="#0d6efd" />
  <text x="620" y="625" font-family="Arial" font-size="14" font-weight="bold" text-anchor="middle" fill="white">저장</text>
  
  <!-- 입금 확인 모달 -->
  <rect x="350" y="250" width="500" height="300" rx="10" ry="10" fill="white" stroke="#212529" stroke-width="1" />
  <rect x="350" y="250" width="500" height="50" rx="10" ry="0" fill="#f8f9fa" />
  <text x="380" y="280" font-family="Arial" font-size="18" font-weight="bold" fill="#212529">입금 확인</text>
  <text x="830" y="280" font-family="Arial" font-size="18" fill="#212529">×</text>
  
  <!-- 입금 확인 모달 내용 -->
  <text x="380" y="330" font-family="Arial" font-size="14" font-weight="bold" fill="#212529">프로젝트</text>
  <rect x="380" y="340" width="440" height="40" rx="5" ry="5" fill="#f8f9fa" />
  <text x="400" y="365" font-family="Arial" font-size="14" fill="#212529">H 호텔 BEMS</text>
  
  <text x="380" y="400" font-family="Arial" font-size="14" font-weight="bold" fill="#212529">입금 금액</text>
  <rect x="380" y="410" width="440" height="40" rx="5" ry="5" fill="white" stroke="#ced4da" stroke-width="1" />
  <text x="400" y="435" font-family="Arial" font-size="14" fill="#212529">20,000,000</text>
  
  <text x="380" y="470" font-family="Arial" font-size="14" font-weight="bold" fill="#212529">입금일</text>
  <rect x="380" y="480" width="440" height="40" rx="5" ry="5" fill="white" stroke="#ced4da" stroke-width="1" />
  <text x="400" y="505" font-family="Arial" font-size="14" fill="#212529">2025-05-28</text>
  
  <!-- 입금 확인 모달 버튼 -->
  <rect x="500" y="540" width="100" height="40" rx="5" ry="5" fill="#6c757d" />
  <text x="550" y="565" font-family="Arial" font-size="14" font-weight="bold" text-anchor="middle" fill="white">취소</text>
  
  <rect x="620" y="540" width="200" height="40" rx="5" ry="5" fill="#28a745" />
  <text x="720" y="565" font-family="Arial" font-size="14" font-weight="bold" text-anchor="middle" fill="white">입금 확인 및 잔액 갱신</text>
</svg>
