<?xml version="1.0" encoding="UTF-8" standalone="no"?>
<svg width="1200" height="800" xmlns="http://www.w3.org/2000/svg">
  <!-- 배경 -->
  <rect width="1200" height="800" fill="#f8f9fa" />
  
  <!-- 헤더 -->
  <rect x="0" y="0" width="1200" height="60" fill="white" stroke="#e9ecef" stroke-width="1" />
  <rect x="20" y="15" width="120" height="30" fill="#f8f9fa" rx="5" ry="5" />
  <text x="80" y="35" font-family="Arial" font-size="16" text-anchor="middle" fill="#212529">케빈랩 로고</text>
  
  <!-- 네비게이션 메뉴 -->
  <text x="200" y="35" font-family="Arial" font-size="14" fill="#6c757d">대시보드</text>
  <text x="300" y="35" font-family="Arial" font-size="14" fill="#6c757d">영업현황</text>
  <text x="380" y="35" font-family="Arial" font-size="14" font-weight="bold" fill="#0d6efd">계약관리</text>
  <text x="460" y="35" font-family="Arial" font-size="14" fill="#6c757d">수주잔</text>
  <text x="530" y="35" font-family="Arial" font-size="14" fill="#6c757d">서비스현황</text>
  <text x="630" y="35" font-family="Arial" font-size="14" fill="#6c757d">설정</text>
  
  <!-- 사용자 메뉴 -->
  <circle cx="1150" cy="30" r="15" fill="#f8f9fa" stroke="#ced4da" stroke-width="1" />
  <text x="1150" y="35" font-family="Arial" font-size="14" text-anchor="middle" fill="#212529">A</text>
  
  <!-- 다크모드 토글 -->
  <circle cx="1100" cy="30" r="15" fill="white" stroke="#ced4da" stroke-width="1" />
  <circle cx="1100" cy="30" r="7" fill="#212529" />
  
  <!-- 페이지 제목 및 주차 정보 -->
  <text x="40" y="100" font-family="Arial" font-size="24" font-weight="bold" fill="#212529">계약 관리</text>
  <rect x="1000" y="85" width="160" height="30" rx="15" ry="15" fill="#e9ecef" />
  <text x="1080" y="105" font-family="Arial" font-size="14" text-anchor="middle" fill="#212529">2025년 5월 3주차</text>
  
  <!-- 탭 메뉴 -->
  <rect x="40" y="130" width="1120" height="50" fill="white" stroke="#e9ecef" stroke-width="1" />
  <rect x="40" y="130" width="150" height="50" fill="#0d6efd" />
  <text x="115" y="160" font-family="Arial" font-size="16" font-weight="bold" text-anchor="middle" fill="white">계약예정</text>
  <text x="240" y="160" font-family="Arial" font-size="16" text-anchor="middle" fill="#6c757d">수주완료</text>
  
  <!-- 필터 영역 -->
  <rect x="40" y="190" width="1120" height="50" fill="white" stroke="#e9ecef" stroke-width="1" />
  <text x="70" y="220" font-family="Arial" font-size="14" fill="#212529">필터:</text>
  
  <rect x="120" y="200" width="120" height="30" rx="5" ry="5" fill="#f8f9fa" stroke="#ced4da" stroke-width="1" />
  <text x="180" y="220" font-family="Arial" font-size="12" text-anchor="middle" fill="#212529">모든 사업장</text>
  
  <rect x="260" y="200" width="120" height="30" rx="5" ry="5" fill="#f8f9fa" stroke="#ced4da" stroke-width="1" />
  <text x="320" y="220" font-family="Arial" font-size="12" text-anchor="middle" fill="#212529">모든 담당자</text>
  
  <rect x="400" y="200" width="200" height="30" rx="5" ry="5" fill="white" stroke="#ced4da" stroke-width="1" />
  <text x="420" y="220" font-family="Arial" font-size="12" fill="#6c757d">검색...</text>
  
  <!-- 테이블 헤더 -->
  <rect x="40" y="250" width="1120" height="50" fill="#f8f9fa" stroke="#e9ecef" stroke-width="1" />
  <text x="70" y="280" font-family="Arial" font-size="14" font-weight="bold" fill="#212529">사업장/프로젝트</text>
  <text x="320" y="280" font-family="Arial" font-size="14" font-weight="bold" fill="#212529">고객사</text>
  <text x="520" y="280" font-family="Arial" font-size="14" font-weight="bold" fill="#212529">계약금액</text>
  <text x="670" y="280" font-family="Arial" font-size="14" font-weight="bold" fill="#212529">예상 계약일</text>
  <text x="820" y="280" font-family="Arial" font-size="14" font-weight="bold" fill="#212529">담당자</text>
  <text x="970" y="280" font-family="Arial" font-size="14" font-weight="bold" fill="#212529">상태</text>
  <text x="1100" y="280" font-family="Arial" font-size="14" font-weight="bold" fill="#212529">작업</text>
  
  <!-- 테이블 행 1 -->
  <rect x="40" y="300" width="1120" height="60" fill="white" stroke="#e9ecef" stroke-width="1" />
  <text x="70" y="335" font-family="Arial" font-size="14" fill="#212529">B 오피스텔 REMS</text>
  <text x="320" y="335" font-family="Arial" font-size="14" fill="#212529">비즈니스 플라자</text>
  <text x="520" y="335" font-family="Arial" font-size="14" fill="#212529">₩52,000,000</text>
  <text x="670" y="335" font-family="Arial" font-size="14" fill="#212529">2025-06-10</text>
  <text x="820" y="335" font-family="Arial" font-size="14" fill="#212529">김영수</text>
  <rect x="950" y="320" width="80" height="25" rx="12" ry="12" fill="#ffc107" fill-opacity="0.2" />
  <text x="990" y="335" font-family="Arial" font-size="12" text-anchor="middle" fill="#ffc107">계약예정</text>
  
  <rect x="1060" y="315" width="100" height="30" rx="5" ry="5" fill="#28a745" />
  <text x="1110" y="335" font-family="Arial" font-size="12" text-anchor="middle" fill="white">계약확정</text>
  
  <!-- 테이블 행 2 -->
  <rect x="40" y="360" width="1120" height="60" fill="white" stroke="#e9ecef" stroke-width="1" />
  <text x="70" y="395" font-family="Arial" font-size="14" fill="#212529">F 쇼핑몰 BEMS</text>
  <text x="320" y="395" font-family="Arial" font-size="14" fill="#212529">메가 리테일</text>
  <text x="520" y="395" font-family="Arial" font-size="14" fill="#212529">₩48,000,000</text>
  <text x="670" y="395" font-family="Arial" font-size="14" fill="#212529">2025-06-25</text>
  <text x="820" y="395" font-family="Arial" font-size="14" fill="#212529">이수진</text>
  <rect x="950" y="380" width="80" height="25" rx="12" ry="12" fill="#ffc107" fill-opacity="0.2" />
  <text x="990" y="395" font-family="Arial" font-size="12" text-anchor="middle" fill="#ffc107">계약예정</text>
  
  <rect x="1060" y="375" width="100" height="30" rx="5" ry="5" fill="#28a745" />
  <text x="1110" y="395" font-family="Arial" font-size="12" text-anchor="middle" fill="white">계약확정</text>
  
  <!-- 테이블 행 3 -->
  <rect x="40" y="420" width="1120" height="60" fill="white" stroke="#e9ecef" stroke-width="1" />
  <text x="70" y="455" font-family="Arial" font-size="14" fill="#212529">G 대학교 REMS</text>
  <text x="320" y="455" font-family="Arial" font-size="14" fill="#212529">미래대학교</text>
  <text x="520" y="455" font-family="Arial" font-size="14" fill="#212529">₩75,000,000</text>
  <text x="670" y="455" font-family="Arial" font-size="14" fill="#212529">2025-07-15</text>
  <text x="820" y="455" font-family="Arial" font-size="14" fill="#212529">박지민</text>
  <rect x="950" y="440" width="80" height="25" rx="12" ry="12" fill="#ffc107" fill-opacity="0.2" />
  <text x="990" y="455" font-family="Arial" font-size="12" text-anchor="middle" fill="#ffc107">계약예정</text>
  
  <rect x="1060" y="435" width="100" height="30" rx="5" ry="5" fill="#28a745" />
  <text x="1110" y="455" font-family="Arial" font-size="12" text-anchor="middle" fill="white">계약확정</text>
  
  <!-- 계약 확정 모달 -->
  <rect x="300" y="150" width="600" height="500" rx="10" ry="10" fill="white" stroke="#212529" stroke-width="1" />
  <rect x="300" y="150" width="600" height="50" rx="10" ry="0" fill="#f8f9fa" />
  <text x="330" y="180" font-family="Arial" font-size="18" font-weight="bold" fill="#212529">계약 확정</text>
  <text x="880" y="180" font-family="Arial" font-size="18" fill="#212529">×</text>
  
  <!-- 모달 내용 -->
  <text x="330" y="230" font-family="Arial" font-size="14" font-weight="bold" fill="#212529">사업장/프로젝트명</text>
  <rect x="330" y="240" width="540" height="40" rx="5" ry="5" fill="#f8f9fa" />
  <text x="350" y="265" font-family="Arial" font-size="14" fill="#212529">B 오피스텔 REMS</text>
  
  <text x="330" y="300" font-family="Arial" font-size="14" font-weight="bold" fill="#212529">계약금액</text>
  <rect x="330" y="310" width="540" height="40" rx="5" ry="5" fill="white" stroke="#ced4da" stroke-width="1" />
  <text x="350" y="335" font-family="Arial" font-size="14" fill="#212529">₩52,000,000</text>
  
  <text x="330" y="370" font-family="Arial" font-size="14" font-weight="bold" fill="#212529">계약일</text>
  <rect x="330" y="380" width="540" height="40" rx="5" ry="5" fill="white" stroke="#ced4da" stroke-width="1" />
  <text x="350" y="405" font-family="Arial" font-size="14" fill="#212529">2025-06-10</text>
  
  <text x="330" y="440" font-family="Arial" font-size="16" font-weight="bold" fill="#212529">월별 매출 계획</text>
  
  <!-- 월별 매출 입력 테이블 -->
  <rect x="330" y="470" width="540" height="40" fill="#f8f9fa" stroke="#e9ecef" stroke-width="1" />
  <text x="380" y="495" font-family="Arial" font-size="14" font-weight="bold" fill="#212529">월</text>
  <text x="600" y="495" font-family="Arial" font-size="14" font-weight="bold" fill="#212529">금액 (원)</text>
  
  <rect x="330" y="510" width="540" height="40" fill="white" stroke="#e9ecef" stroke-width="1" />
  <text x="380" y="535" font-family="Arial" font-size="14" fill="#212529">2025-06</text>
  <rect x="500" y="515" width="200" height="30" rx="5" ry="5" fill="white" stroke="#ced4da" stroke-width="1" />
  <text x="520" y="535" font-family="Arial" font-size="14" fill="#212529">15,000,000</text>
  
  <rect x="330" y="550" width="540" height="40" fill="white" stroke="#e9ecef" stroke-width="1" />
  <text x="380" y="575" font-family="Arial" font-size="14" fill="#212529">2025-07</text>
  <rect x="500" y="555" width="200" height="30" rx="5" ry="5" fill="white" stroke="#ced4da" stroke-width="1" />
  <text x="520" y="575" font-family="Arial" font-size="14" fill="#212529">20,000,000</text>
  
  <rect x="330" y="590" width="540" height="40" fill="white" stroke="#e9ecef" stroke-width="1" />
  <text x="380" y="615" font-family="Arial" font-size="14" fill="#212529">2025-08</text>
  <rect x="500" y="595" width="200" height="30" rx="5" ry="5" fill="white" stroke="#ced4da" stroke-width="1" />
  <text x="520" y="615" font-family="Arial" font-size="14" fill="#212529">17,000,000</text>
  
  <!-- 모달 버튼 -->
  <rect x="450" y="650" width="100" height="40" rx="5" ry="5" fill="#6c757d" />
  <text x="500" y="675" font-family="Arial" font-size="14" font-weight="bold" text-anchor="middle" fill="white">취소</text>
  
  <rect x="570" y="650" width="300" height="40" rx="5" ry="5" fill="#28a745" />
  <text x="720" y="675" font-family="Arial" font-size="14" font-weight="bold" text-anchor="middle" fill="white">계약 확정 및 수주잔으로 이동</text>
</svg>
