<?xml version="1.0" encoding="UTF-8" standalone="no"?>
<svg width="1200" height="800" xmlns="http://www.w3.org/2000/svg">
  <!-- 배경 -->
  <rect width="1200" height="800" fill="#f8f9fa" />
  
  <!-- 헤더 -->
  <rect x="0" y="0" width="1200" height="60" fill="white" stroke="#e9ecef" stroke-width="1" />
  <rect x="20" y="15" width="120" height="30" fill="#f8f9fa" rx="5" ry="5" />
  <text x="80" y="35" font-family="Arial" font-size="16" text-anchor="middle" fill="#212529">케빈랩 로고</text>
  
  <!-- 네비게이션 메뉴 -->
  <text x="200" y="35" font-family="Arial" font-size="14" fill="#6c757d">대시보드</text>
  <text x="300" y="35" font-family="Arial" font-size="14" fill="#6c757d">영업현황</text>
  <text x="380" y="35" font-family="Arial" font-size="14" fill="#6c757d">계약관리</text>
  <text x="460" y="35" font-family="Arial" font-size="14" fill="#6c757d">수주잔</text>
  <text x="530" y="35" font-family="Arial" font-size="14" font-weight="bold" fill="#0d6efd">서비스현황</text>
  <text x="630" y="35" font-family="Arial" font-size="14" fill="#6c757d">설정</text>
  
  <!-- 사용자 메뉴 -->
  <circle cx="1150" cy="30" r="15" fill="#f8f9fa" stroke="#ced4da" stroke-width="1" />
  <text x="1150" y="35" font-family="Arial" font-size="14" text-anchor="middle" fill="#212529">A</text>
  
  <!-- 다크모드 토글 -->
  <circle cx="1100" cy="30" r="15" fill="white" stroke="#ced4da" stroke-width="1" />
  <circle cx="1100" cy="30" r="7" fill="#212529" />
  
  <!-- 페이지 제목 및 주차 정보 -->
  <text x="40" y="100" font-family="Arial" font-size="24" font-weight="bold" fill="#212529">서비스 현황</text>
  <rect x="1000" y="85" width="160" height="30" rx="15" ry="15" fill="#e9ecef" />
  <text x="1080" y="105" font-family="Arial" font-size="14" text-anchor="middle" fill="#212529">2025년 5월 3주차</text>
  
  <!-- 서비스 요약 카드 영역 -->
  <rect x="40" y="130" width="270" height="120" rx="10" ry="10" fill="white" stroke="#e9ecef" stroke-width="1" />
  <text x="60" y="160" font-family="Arial" font-size="16" font-weight="bold" fill="#212529">HEMS</text>
  <text x="60" y="190" font-family="Arial" font-size="14" fill="#6c757d">에너지 절감량</text>
  <text x="60" y="220" font-family="Arial" font-size="20" font-weight="bold" fill="#0d6efd">45,000 kWh</text>
  
  <rect x="330" y="130" width="270" height="120" rx="10" ry="10" fill="white" stroke="#e9ecef" stroke-width="1" />
  <text x="350" y="160" font-family="Arial" font-size="16" font-weight="bold" fill="#212529">BEMS</text>
  <text x="350" y="190" font-family="Arial" font-size="14" fill="#6c757d">에너지 절감량</text>
  <text x="350" y="220" font-family="Arial" font-size="20" font-weight="bold" fill="#0d6efd">32,500 kWh</text>
  
  <rect x="620" y="130" width="270" height="120" rx="10" ry="10" fill="white" stroke="#e9ecef" stroke-width="1" />
  <text x="640" y="160" font-family="Arial" font-size="16" font-weight="bold" fill="#212529">REMS</text>
  <text x="640" y="190" font-family="Arial" font-size="14" fill="#6c757d">에너지 절감량</text>
  <text x="640" y="220" font-family="Arial" font-size="20" font-weight="bold" fill="#0d6efd">28,700 kWh</text>
  
  <rect x="910" y="130" width="270" height="120" rx="10" ry="10" fill="white" stroke="#e9ecef" stroke-width="1" />
  <text x="930" y="160" font-family="Arial" font-size="16" font-weight="bold" fill="#212529">FEMS</text>
  <text x="930" y="190" font-family="Arial" font-size="14" fill="#6c757d">에너지 절감량</text>
  <text x="930" y="220" font-family="Arial" font-size="20" font-weight="bold" fill="#0d6efd">52,800 kWh</text>
  
  <!-- 서비스 탭 메뉴 -->
  <rect x="40" y="270" width="1120" height="50" fill="white" stroke="#e9ecef" stroke-width="1" />
  <rect x="40" y="270" width="150" height="50" fill="#0d6efd" />
  <text x="115" y="300" font-family="Arial" font-size="16" font-weight="bold" text-anchor="middle" fill="white">HEMS</text>
  <text x="240" y="300" font-family="Arial" font-size="16" text-anchor="middle" fill="#6c757d">BEMS</text>
  <text x="340" y="300" font-family="Arial" font-size="16" text-anchor="middle" fill="#6c757d">REMS</text>
  <text x="440" y="300" font-family="Arial" font-size="16" text-anchor="middle" fill="#6c757d">FEMS</text>
  <text x="550" y="300" font-family="Arial" font-size="16" text-anchor="middle" fill="#6c757d">KPI 요약</text>
  
  <!-- 필터 영역 -->
  <rect x="40" y="330" width="1120" height="50" fill="white" stroke="#e9ecef" stroke-width="1" />
  <text x="70" y="360" font-family="Arial" font-size="14" fill="#212529">필터:</text>
  
  <rect x="120" y="340" width="120" height="30" rx="5" ry="5" fill="#f8f9fa" stroke="#ced4da" stroke-width="1" />
  <text x="180" y="360" font-family="Arial" font-size="12" text-anchor="middle" fill="#212529">모든 사업장</text>
  
  <rect x="260" y="340" width="120" height="30" rx="5" ry="5" fill="#f8f9fa" stroke="#ced4da" stroke-width="1" />
  <text x="320" y="360" font-family="Arial" font-size="12" text-anchor="middle" fill="#212529">모든 담당자</text>
  
  <rect x="400" y="340" width="200" height="30" rx="5" ry="5" fill="white" stroke="#ced4da" stroke-width="1" />
  <text x="420" y="360" font-family="Arial" font-size="12" fill="#6c757d">검색...</text>
  
  <rect x="1000" y="340" width="140" height="30" rx="5" ry="5" fill="#0d6efd" />
  <text x="1070" y="360" font-family="Arial" font-size="14" font-weight="bold" text-anchor="middle" fill="white">+ KPI 추가</text>
  
  <!-- 테이블 헤더 -->
  <rect x="40" y="390" width="1120" height="50" fill="#f8f9fa" stroke="#e9ecef" stroke-width="1" />
  <text x="70" y="420" font-family="Arial" font-size="14" font-weight="bold" fill="#212529">사업장/프로젝트</text>
  <text x="300" y="420" font-family="Arial" font-size="14" font-weight="bold" fill="#212529">고객사</text>
  <text x="500" y="420" font-family="Arial" font-size="14" font-weight="bold" fill="#212529">에너지 절감량</text>
  <text x="650" y="420" font-family="Arial" font-size="14" font-weight="bold" fill="#212529">관리 면적</text>
  <text x="800" y="420" font-family="Arial" font-size="14" font-weight="bold" fill="#212529">CO2 감축량</text>
  <text x="950" y="420" font-family="Arial" font-size="14" font-weight="bold" fill="#212529">담당자</text>
  <text x="1100" y="420" font-family="Arial" font-size="14" font-weight="bold" fill="#212529">작업</text>
  
  <!-- 테이블 행 1 -->
  <rect x="40" y="440" width="1120" height="60" fill="white" stroke="#e9ecef" stroke-width="1" />
  <text x="70" y="475" font-family="Arial" font-size="14" fill="#212529">A 아파트 단지</text>
  <text x="300" y="475" font-family="Arial" font-size="14" fill="#212529">그린빌리지</text>
  <text x="500" y="475" font-family="Arial" font-size="14" fill="#212529">15,000 kWh</text>
  <text x="650" y="475" font-family="Arial" font-size="14" fill="#212529">25,000 m²</text>
  <text x="800" y="475" font-family="Arial" font-size="14" fill="#212529">7.5 톤</text>
  <text x="950" y="475" font-family="Arial" font-size="14" fill="#212529">김영수</text>
  
  <rect x="1060" y="455" width="80" height="30" rx="5" ry="5" fill="#0d6efd" />
  <text x="1100" y="475" font-family="Arial" font-size="12" text-anchor="middle" fill="white">관리</text>
  
  <!-- 테이블 행 2 -->
  <rect x="40" y="500" width="1120" height="60" fill="white" stroke="#e9ecef" stroke-width="1" />
  <text x="70" y="535" font-family="Arial" font-size="14" fill="#212529">E 병원 HEMS</text>
  <text x="300" y="535" font-family="Arial" font-size="14" fill="#212529">미래의료센터</text>
  <text x="500" y="535" font-family="Arial" font-size="14" fill="#212529">12,500 kWh</text>
  <text x="650" y="535" font-family="Arial" font-size="14" fill="#212529">18,000 m²</text>
  <text x="800" y="535" font-family="Arial" font-size="14" fill="#212529">6.2 톤</text>
  <text x="950" y="535" font-family="Arial" font-size="14" fill="#212529">박지민</text>
  
  <rect x="1060" y="515" width="80" height="30" rx="5" ry="5" fill="#0d6efd" />
  <text x="1100" y="535" font-family="Arial" font-size="12" text-anchor="middle" fill="white">관리</text>
  
  <!-- 테이블 행 3 -->
  <rect x="40" y="560" width="1120" height="60" fill="white" stroke="#e9ecef" stroke-width="1" />
  <text x="70" y="595" font-family="Arial" font-size="14" fill="#212529">J 아파트 HEMS</text>
  <text x="300" y="595" font-family="Arial" font-size="14" fill="#212529">스마트빌</text>
  <text x="500" y="595" font-family="Arial" font-size="14" fill="#212529">17,500 kWh</text>
  <text x="650" y="595" font-family="Arial" font-size="14" fill="#212529">30,000 m²</text>
  <text x="800" y="595" font-family="Arial" font-size="14" fill="#212529">8.8 톤</text>
  <text x="950" y="595" font-family="Arial" font-size="14" fill="#212529">이수진</text>
  
  <rect x="1060" y="575" width="80" height="30" rx="5" ry="5" fill="#0d6efd" />
  <text x="1100" y="595" font-family="Arial" font-size="12" text-anchor="middle" fill="white">관리</text>
  
  <!-- 서비스 KPI 관리 모달 -->
  <rect x="250" y="150" width="700" height="500" rx="10" ry="10" fill="white" stroke="#212529" stroke-width="1" />
  <rect x="250" y="150" width="700" height="50" rx="10" ry="0" fill="#f8f9fa" />
  <text x="280" y="180" font-family="Arial" font-size="18" font-weight="bold" fill="#212529">HEMS 서비스 KPI 관리</text>
  <text x="930" y="180" font-family="Arial" font-size="18" fill="#212529">×</text>
  
  <!-- 모달 내용 -->
  <text x="280" y="230" font-family="Arial" font-size="14" font-weight="bold" fill="#212529">사업장/프로젝트</text>
  <rect x="280" y="240" width="640" height="40" rx="5" ry="5" fill="#f8f9fa" />
  <text x="300" y="265" font-family="Arial" font-size="14" fill="#212529">A 아파트 단지</text>
  
  <text x="280" y="300" font-family="Arial" font-size="14" font-weight="bold" fill="#212529">고객사</text>
  <rect x="280" y="310" width="640" height="40" rx="5" ry="5" fill="#f8f9fa" />
  <text x="300" y="335" font-family="Arial" font-size="14" fill="#212529">그린빌리지</text>
  
  <text x="280" y="370" font-family="Arial" font-size="16" font-weight="bold" fill="#212529">KPI 지표</text>
  
  <!-- KPI 입력 테이블 -->
  <rect x="280" y="400" width="640" height="40" fill="#f8f9fa" stroke="#e9ecef" stroke-width="1" />
  <text x="330" y="425" font-family="Arial" font-size="14" font-weight="bold" fill="#212529">지표</text>
  <text x="600" y="425" font-family="Arial" font-size="14" font-weight="bold" fill="#212529">값</text>
  <text x="800" y="425" font-family="Arial" font-size="14" font-weight="bold" fill="#212529">단위</text>
  
  <rect x="280" y="440" width="640" height="40" fill="white" stroke="#e9ecef" stroke-width="1" />
  <text x="330" y="465" font-family="Arial" font-size="14" fill="#212529">에너지 절감량</text>
  <rect x="500" y="445" width="150" height="30" rx="5" ry="5" fill="white" stroke="#ced4da" stroke-width="1" />
  <text x="520" y="465" font-family="Arial" font-size="14" fill="#212529">15,000</text>
  <text x="800" y="465" font-family="Arial" font-size="14" fill="#212529">kWh</text>
  
  <rect x="280" y="480" width="640" height="40" fill="white" stroke="#e9ecef" stroke-width="1" />
  <text x="330" y="505" font-family="Arial" font-size="14" fill="#212529">관리 면적</text>
  <rect x="500" y="485" width="150" height="30" rx="5" ry="5" fill="white" stroke="#ced4da" stroke-width="1" />
  <text x="520" y="505" font-family="Arial" font-size="14" fill="#212529">25,000</text>
  <text x="800" y="505" font-family="Arial" font-size="14" fill="#212529">m²</text>
  
  <rect x="280" y="520" width="640" height="40" fill="white" stroke="#e9ecef" stroke-width="1" />
  <text x="330" y="545" font-family="Arial" font-size="14" fill="#212529">CO2 감축량</text>
  <rect x="500" y="525" width="150" height="30" rx="5" ry="5" fill="white" stroke="#ced4da" stroke-width="1" />
  <text x="520" y="545" font-family="Arial" font-size="14" fill="#212529">7.5</text>
  <text x="800" y="545" font-family="Arial" font-size="14" fill="#212529">톤</text>
  
  <!-- 모달 버튼 -->
  <rect x="450" y="600" width="100" height="40" rx="5" ry="5" fill="#6c757d" />
  <text x="500" y="625" font-family="Arial" font-size="14" font-weight="bold" text-anchor="middle" fill="white">취소</text>
  
  <rect x="570" y="600" width="100" height="40" rx="5" ry="5" fill="#0d6efd" />
  <text x="620" y="625" font-family="Arial" font-size="14" font-weight="bold" text-anchor="middle" fill="white">저장</text>
  
  <!-- KPI 추가 모달 -->
  <rect x="350" y="250" width="500" height="300" rx="10" ry="10" fill="white" stroke="#212529" stroke-width="1" />
  <rect x="350" y="250" width="500" height="50" rx="10" ry="0" fill="#f8f9fa" />
  <text x="380" y="280" font-family="Arial" font-size="18" font-weight="bold" fill="#212529">KPI 추가</text>
  <text x="830" y="280" font-family="Arial" font-size="18" fill="#212529">×</text>
  
  <!-- KPI 추가 모달 내용 -->
  <text x="380" y="330" font-family="Arial" font-size="14" font-weight="bold" fill="#212529">서비스 유형</text>
  <rect x="380" y="340" width="440" height="40" rx="5" ry="5" fill="white" stroke="#ced4da" stroke-width="1" />
  <text x="400" y="365" font-family="Arial" font-size="14" fill="#212529">HEMS</text>
  
  <text x="380" y="400" font-family="Arial" font-size="14" font-weight="bold" fill="#212529">사업장/프로젝트</text>
  <rect x="380" y="410" width="440" height="40" rx="5" ry="5" fill="white" stroke="#ced4da" stroke-width="1" />
  <text x="400" y="435" font-family="Arial" font-size="14" fill="#212529">신규 사업장 추가...</text>
  
  <text x="380" y="470" font-family="Arial" font-size="14" font-weight="bold" fill="#212529">고객사</text>
  <rect x="380" y="480" width="440" height="40" rx="5" ry="5" fill="white" stroke="#ced4da" stroke-width="1" />
  <text x="400" y="505" font-family="Arial" font-size="14" fill="#212529">신규 고객사 추가...</text>
  
  <!-- KPI 추가 모달 버튼 -->
  <rect x="500" y="540" width="100" height="40" rx="5" ry="5" fill="#6c757d" />
  <text x="550" y="565" font-family="Arial" font-size="14" font-weight="bold" text-anchor="middle" fill="white">취소</text>
  
  <rect x="620" y="540" width="200" height="40" rx="5" ry="5" fill="#0d6efd" />
  <text x="720" y="565" font-family="Arial" font-size="14" font-weight="bold" text-anchor="middle" fill="white">다음: KPI 값 입력</text>
</svg>
