<?xml version="1.0" encoding="UTF-8" standalone="no"?>
<svg width="1200" height="800" xmlns="http://www.w3.org/2000/svg">
  <!-- 배경 -->
  <rect width="1200" height="800" fill="#f8f9fa" />
  
  <!-- 헤더 -->
  <rect x="0" y="0" width="1200" height="60" fill="white" stroke="#e9ecef" stroke-width="1" />
  <rect x="20" y="15" width="120" height="30" fill="#f8f9fa" rx="5" ry="5" />
  <text x="80" y="35" font-family="Arial" font-size="16" text-anchor="middle" fill="#212529">케빈랩 로고</text>
  
  <!-- 네비게이션 메뉴 -->
  <text x="200" y="35" font-family="Arial" font-size="14" fill="#6c757d">대시보드</text>
  <text x="300" y="35" font-family="Arial" font-size="14" fill="#6c757d">영업현황</text>
  <text x="380" y="35" font-family="Arial" font-size="14" fill="#6c757d">계약관리</text>
  <text x="460" y="35" font-family="Arial" font-size="14" fill="#6c757d">수주잔</text>
  <text x="530" y="35" font-family="Arial" font-size="14" fill="#6c757d">서비스현황</text>
  <text x="630" y="35" font-family="Arial" font-size="14" font-weight="bold" fill="#0d6efd">설정</text>
  
  <!-- 사용자 메뉴 -->
  <circle cx="1150" cy="30" r="15" fill="#f8f9fa" stroke="#ced4da" stroke-width="1" />
  <text x="1150" y="35" font-family="Arial" font-size="14" text-anchor="middle" fill="#212529">A</text>
  
  <!-- 다크모드 토글 -->
  <circle cx="1100" cy="30" r="15" fill="white" stroke="#ced4da" stroke-width="1" />
  <circle cx="1100" cy="30" r="7" fill="#212529" />
  
  <!-- 페이지 제목 및 주차 정보 -->
  <text x="40" y="100" font-family="Arial" font-size="24" font-weight="bold" fill="#212529">설정</text>
  <rect x="1000" y="85" width="160" height="30" rx="15" ry="15" fill="#e9ecef" />
  <text x="1080" y="105" font-family="Arial" font-size="14" text-anchor="middle" fill="#212529">2025년 5월 3주차</text>
  
  <!-- 설정 탭 메뉴 -->
  <rect x="40" y="130" width="1120" height="50" fill="white" stroke="#e9ecef" stroke-width="1" />
  <rect x="40" y="130" width="150" height="50" fill="#0d6efd" />
  <text x="115" y="160" font-family="Arial" font-size="16" font-weight="bold" text-anchor="middle" fill="white">사용자 관리</text>
  <text x="240" y="160" font-family="Arial" font-size="16" text-anchor="middle" fill="#6c757d">기준 정보</text>
  <text x="340" y="160" font-family="Arial" font-size="16" text-anchor="middle" fill="#6c757d">시스템 설정</text>
  <text x="450" y="160" font-family="Arial" font-size="16" text-anchor="middle" fill="#6c757d">백업/복원</text>
  
  <!-- 사용자 관리 버튼 -->
  <rect x="40" y="200" width="140" height="40" rx="5" ry="5" fill="#0d6efd" />
  <text x="110" y="225" font-family="Arial" font-size="14" font-weight="bold" text-anchor="middle" fill="white">+ 사용자 추가</text>
  
  <!-- 필터 영역 -->
  <rect x="200" y="200" width="960" height="40" rx="5" ry="5" fill="white" stroke="#e9ecef" stroke-width="1" />
  <text x="230" y="225" font-family="Arial" font-size="14" fill="#212529">필터:</text>
  
  <rect x="280" y="205" width="120" height="30" rx="5" ry="5" fill="#f8f9fa" stroke="#ced4da" stroke-width="1" />
  <text x="340" y="225" font-family="Arial" font-size="12" text-anchor="middle" fill="#212529">모든 역할</text>
  
  <rect x="420" y="205" width="120" height="30" rx="5" ry="5" fill="#f8f9fa" stroke="#ced4da" stroke-width="1" />
  <text x="480" y="225" font-family="Arial" font-size="12" text-anchor="middle" fill="#212529">모든 상태</text>
  
  <rect x="560" y="205" width="200" height="30" rx="5" ry="5" fill="white" stroke="#ced4da" stroke-width="1" />
  <text x="580" y="225" font-family="Arial" font-size="12" fill="#6c757d">검색...</text>
  
  <!-- 테이블 헤더 -->
  <rect x="40" y="260" width="1120" height="50" fill="#f8f9fa" stroke="#e9ecef" stroke-width="1" />
  <text x="70" y="290" font-family="Arial" font-size="14" font-weight="bold" fill="#212529">이름</text>
  <text x="300" y="290" font-family="Arial" font-size="14" font-weight="bold" fill="#212529">이메일</text>
  <text x="600" y="290" font-family="Arial" font-size="14" font-weight="bold" fill="#212529">역할</text>
  <text x="800" y="290" font-family="Arial" font-size="14" font-weight="bold" fill="#212529">상태</text>
  <text x="1000" y="290" font-family="Arial" font-size="14" font-weight="bold" fill="#212529">작업</text>
  
  <!-- 테이블 행 1 -->
  <rect x="40" y="310" width="1120" height="60" fill="white" stroke="#e9ecef" stroke-width="1" />
  <text x="70" y="345" font-family="Arial" font-size="14" fill="#212529">김영수</text>
  <text x="300" y="345" font-family="Arial" font-size="14" fill="#212529">kim@kevinlab.co.kr</text>
  <rect x="600" y="330" width="80" height="25" rx="12" ry="12" fill="#0d6efd" fill-opacity="0.2" />
  <text x="640" y="345" font-family="Arial" font-size="12" text-anchor="middle" fill="#0d6efd">관리자</text>
  <rect x="800" y="330" width="80" height="25" rx="12" ry="12" fill="#28a745" fill-opacity="0.2" />
  <text x="840" y="345" font-family="Arial" font-size="12" text-anchor="middle" fill="#28a745">활성</text>
  
  <rect x="1000" y="325" width="80" height="30" rx="5" ry="5" fill="#0d6efd" />
  <text x="1040" y="345" font-family="Arial" font-size="12" text-anchor="middle" fill="white">편집</text>
  
  <!-- 테이블 행 2 -->
  <rect x="40" y="370" width="1120" height="60" fill="white" stroke="#e9ecef" stroke-width="1" />
  <text x="70" y="405" font-family="Arial" font-size="14" fill="#212529">박지민</text>
  <text x="300" y="405" font-family="Arial" font-size="14" fill="#212529">park@kevinlab.co.kr</text>
  <rect x="600" y="390" width="80" height="25" rx="12" ry="12" fill="#6c757d" fill-opacity="0.2" />
  <text x="640" y="405" font-family="Arial" font-size="12" text-anchor="middle" fill="#6c757d">사용자</text>
  <rect x="800" y="390" width="80" height="25" rx="12" ry="12" fill="#28a745" fill-opacity="0.2" />
  <text x="840" y="405" font-family="Arial" font-size="12" text-anchor="middle" fill="#28a745">활성</text>
  
  <rect x="1000" y="385" width="80" height="30" rx="5" ry="5" fill="#0d6efd" />
  <text x="1040" y="405" font-family="Arial" font-size="12" text-anchor="middle" fill="white">편집</text>
  
  <!-- 테이블 행 3 -->
  <rect x="40" y="430" width="1120" height="60" fill="white" stroke="#e9ecef" stroke-width="1" />
  <text x="70" y="465" font-family="Arial" font-size="14" fill="#212529">이수진</text>
  <text x="300" y="465" font-family="Arial" font-size="14" fill="#212529">lee@kevinlab.co.kr</text>
  <rect x="600" y="450" width="80" height="25" rx="12" ry="12" fill="#6c757d" fill-opacity="0.2" />
  <text x="640" y="465" font-family="Arial" font-size="12" text-anchor="middle" fill="#6c757d">사용자</text>
  <rect x="800" y="450" width="80" height="25" rx="12" ry="12" fill="#dc3545" fill-opacity="0.2" />
  <text x="840" y="465" font-family="Arial" font-size="12" text-anchor="middle" fill="#dc3545">비활성</text>
  
  <rect x="1000" y="445" width="80" height="30" rx="5" ry="5" fill="#0d6efd" />
  <text x="1040" y="465" font-family="Arial" font-size="12" text-anchor="middle" fill="white">편집</text>
  
  <!-- 사용자 추가 모달 -->
  <rect x="300" y="150" width="600" height="500" rx="10" ry="10" fill="white" stroke="#212529" stroke-width="1" />
  <rect x="300" y="150" width="600" height="50" rx="10" ry="0" fill="#f8f9fa" />
  <text x="330" y="180" font-family="Arial" font-size="18" font-weight="bold" fill="#212529">사용자 추가</text>
  <text x="880" y="180" font-family="Arial" font-size="18" fill="#212529">×</text>
  
  <!-- 모달 내용 -->
  <text x="330" y="230" font-family="Arial" font-size="14" font-weight="bold" fill="#212529">이름</text>
  <rect x="330" y="240" width="540" height="40" rx="5" ry="5" fill="white" stroke="#ced4da" stroke-width="1" />
  <text x="350" y="265" font-family="Arial" font-size="14" fill="#6c757d">사용자 이름 입력</text>
  
  <text x="330" y="300" font-family="Arial" font-size="14" font-weight="bold" fill="#212529">이메일</text>
  <rect x="330" y="310" width="540" height="40" rx="5" ry="5" fill="white" stroke="#ced4da" stroke-width="1" />
  <text x="350" y="335" font-family="Arial" font-size="14" fill="#6c757d">example@kevinlab.co.kr</text>
  
  <text x="330" y="370" font-family="Arial" font-size="14" font-weight="bold" fill="#212529">비밀번호</text>
  <rect x="330" y="380" width="540" height="40" rx="5" ry="5" fill="white" stroke="#ced4da" stroke-width="1" />
  <text x="350" y="405" font-family="Arial" font-size="14" fill="#6c757d">••••••••</text>
  
  <text x="330" y="440" font-family="Arial" font-size="14" font-weight="bold" fill="#212529">역할</text>
  <rect x="330" y="450" width="540" height="40" rx="5" ry="5" fill="white" stroke="#ced4da" stroke-width="1" />
  <text x="350" y="475" font-family="Arial" font-size="14" fill="#212529">사용자</text>
  
  <text x="330" y="510" font-family="Arial" font-size="14" font-weight="bold" fill="#212529">상태</text>
  <rect x="330" y="520" width="540" height="40" rx="5" ry="5" fill="white" stroke="#ced4da" stroke-width="1" />
  <text x="350" y="545" font-family="Arial" font-size="14" fill="#212529">활성</text>
  
  <!-- 모달 버튼 -->
  <rect x="450" y="590" width="100" height="40" rx="5" ry="5" fill="#6c757d" />
  <text x="500" y="615" font-family="Arial" font-size="14" font-weight="bold" text-anchor="middle" fill="white">취소</text>
  
  <rect x="570" y="590" width="100" height="40" rx="5" ry="5" fill="#0d6efd" />
  <text x="620" y="615" font-family="Arial" font-size="14" font-weight="bold" text-anchor="middle" fill="white">저장</text>
  
  <!-- 기준 정보 화면 (숨겨진 상태) -->
  <rect x="40" y="530" width="1120" height="250" fill="white" stroke="#e9ecef" stroke-width="1" opacity="0.5" />
  <text x="70" y="560" font-family="Arial" font-size="16" font-weight="bold" fill="#212529" opacity="0.5">기준 정보 관리</text>
  
  <rect x="70" y="580" width="200" height="180" fill="#f8f9fa" stroke="#e9ecef" stroke-width="1" opacity="0.5" />
  <text x="170" y="610" font-family="Arial" font-size="14" font-weight="bold" text-anchor="middle" fill="#212529" opacity="0.5">사업 구분</text>
  
  <rect x="290" y="580" width="200" height="180" fill="#f8f9fa" stroke="#e9ecef" stroke-width="1" opacity="0.5" />
  <text x="390" y="610" font-family="Arial" font-size="14" font-weight="bold" text-anchor="middle" fill="#212529" opacity="0.5">영업 단계</text>
  
  <rect x="510" y="580" width="200" height="180" fill="#f8f9fa" stroke="#e9ecef" stroke-width="1" opacity="0.5" />
  <text x="610" y="610" font-family="Arial" font-size="14" font-weight="bold" text-anchor="middle" fill="#212529" opacity="0.5">서비스 유형</text>
  
  <rect x="730" y="580" width="200" height="180" fill="#f8f9fa" stroke="#e9ecef" stroke-width="1" opacity="0.5" />
  <text x="830" y="610" font-family="Arial" font-size="14" font-weight="bold" text-anchor="middle" fill="#212529" opacity="0.5">KPI 지표</text>
</svg>
